<svg width="11" height="13" viewBox="0 0 11 13" fill="none" xmlns="http://www.w3.org/2000/svg">
<path fill-rule="evenodd" clip-rule="evenodd" d="M0 5.40658C0 2.41663 2.48722 0 5.49573 0C8.51277 0 11 2.41663 11 5.40658C11 6.91321 10.4545 8.31195 9.55674 9.49755C8.56628 10.8053 7.34554 11.9447 5.97138 12.8391C5.65691 13.0458 5.37311 13.0614 5.02791 12.8391C3.64601 11.9447 2.42524 10.8053 1.44326 9.49755C0.544811 8.31195 0 6.91321 0 5.40658ZM3.6845 5.57493C3.6845 6.57651 4.49816 7.36431 5.49573 7.36431C6.49401 7.36431 7.31552 6.57651 7.31552 5.57493C7.31552 4.58107 6.49401 3.75494 5.49573 3.75494C4.49816 3.75494 3.6845 4.58107 3.6845 5.57493Z" fill="#747474"/>
</svg>
