<svg width="15" height="19" viewBox="0 0 15 19" fill="none" xmlns="http://www.w3.org/2000/svg">
<path d="M11.0625 0.904419C11.1638 0.904419 11.2652 0.943198 11.3424 1.02039C11.4967 1.17476 11.4967 1.42574 11.3424 1.58012L10.3049 2.61763C11.4828 3.48202 12.25 4.87285 12.25 6.44608H2.75C2.75 4.87285 3.51721 3.48202 4.69515 2.61763L3.65763 1.58012C3.50326 1.42495 3.50326 1.17555 3.65763 1.02039C3.81201 0.866011 4.06299 0.866011 4.21737 1.02039L5.39095 2.19397C6.02701 1.87782 6.74143 1.69609 7.5 1.69609C8.25857 1.69609 8.97299 1.87782 9.60905 2.19397L10.7826 1.02039C10.8598 0.943198 10.9612 0.904419 11.0625 0.904419ZM9.875 4.07109H9.08333V4.86275H9.875V4.07109ZM5.91667 4.07109H5.125V4.86275H5.91667V4.07109ZM13.8333 7.23775C14.2703 7.23775 14.625 7.59242 14.625 8.02942V12.7794C14.625 13.2164 14.2703 13.5711 13.8333 13.5711C13.3963 13.5711 13.0417 13.2164 13.0417 12.7794V8.02942C13.0417 7.59242 13.3963 7.23775 13.8333 7.23775ZM12.25 7.23775V13.5711C12.25 14.0081 11.8953 14.3628 11.4583 14.3628H10.6667V17.1336C10.6667 17.7891 10.1347 18.3211 9.47917 18.3211C8.82367 18.3211 8.29167 17.7891 8.29167 17.1336V14.3628H6.70833V17.1336C6.70833 17.7891 6.17633 18.3211 5.52083 18.3211C4.86533 18.3211 4.33333 17.7891 4.33333 17.1336V14.3628H3.54167C3.10467 14.3628 2.75 14.0081 2.75 13.5711V7.23775H12.25ZM1.16667 7.23775C1.60367 7.23775 1.95833 7.59242 1.95833 8.02942V12.7794C1.95833 13.2164 1.60367 13.5711 1.16667 13.5711C0.729667 13.5711 0.375 13.2164 0.375 12.7794V8.02942C0.375 7.59242 0.729667 7.23775 1.16667 7.23775Z" fill="white"/>
</svg>
