<svg width="16" height="19" viewBox="0 0 16 19" fill="none" xmlns="http://www.w3.org/2000/svg">
<path d="M15.811 14.0128C15.3797 14.9706 15.1719 15.3988 14.6172 16.2441C13.8406 17.4253 12.7453 18.9003 11.3922 18.9097C10.1875 18.9206 9.87658 18.1238 8.24064 18.1378C6.60626 18.1456 6.26564 18.9253 5.05939 18.9128C3.7047 18.9003 2.66877 17.5722 1.8922 16.3925C-0.279671 13.0847 -0.509358 9.20657 0.832829 7.14407C1.78283 5.68157 3.28439 4.82219 4.69533 4.82219C6.13283 4.82219 7.03595 5.61126 8.22345 5.61126C9.37658 5.61126 10.0781 4.82063 11.7406 4.82063C12.9969 4.82063 14.325 5.505 15.275 6.68625C12.1688 8.38938 12.6735 12.8253 15.811 14.0128ZM10.4781 3.50032C11.0828 2.72376 11.5422 1.62844 11.375 0.512817C10.3891 0.580005 9.23595 1.20969 8.56251 2.02532C7.95158 2.76907 7.44533 3.87219 7.6422 4.93938C8.71876 4.97376 9.83283 4.33157 10.4781 3.50032Z" fill="white"/>
</svg>
