<svg width="34" height="35" viewBox="0 0 34 35" fill="none" xmlns="http://www.w3.org/2000/svg">
<path d="M13.7702 26.9902C13.5047 26.9902 13.2392 26.8924 13.0295 26.6828L4.54652 18.1997C4.14123 17.7945 4.14123 17.1237 4.54652 16.7184L13.0295 8.23536C13.4348 7.83008 14.1056 7.83008 14.5109 8.23536C14.9162 8.64064 14.9162 9.31146 14.5109 9.71674L6.76859 17.4591L14.5109 25.2014C14.9162 25.6067 14.9162 26.2775 14.5109 26.6828C14.3152 26.8924 14.0357 26.9902 13.7702 26.9902Z" fill="white"/>
<path d="M29.0453 18.5069H5.52483C4.95184 18.5069 4.47668 18.0318 4.47668 17.4588C4.47668 16.8858 4.95184 16.4106 5.52483 16.4106H29.0453C29.6182 16.4106 30.0934 16.8858 30.0934 17.4588C30.0934 18.0318 29.6182 18.5069 29.0453 18.5069Z" fill="white"/>
</svg>
