<svg width="16" height="16" viewBox="0 0 16 16" fill="none" xmlns="http://www.w3.org/2000/svg">
<path d="M6.38 12.5466C6.25333 12.5466 6.12667 12.5 6.02667 12.4L1.98 8.35329C1.78667 8.15996 1.78667 7.83996 1.98 7.64662L6.02667 3.59996C6.22 3.40662 6.54 3.40662 6.73333 3.59996C6.92667 3.79329 6.92667 4.11329 6.73333 4.30662L3.04 7.99996L6.73333 11.6933C6.92667 11.8866 6.92667 12.2066 6.73333 12.4C6.64 12.5 6.50667 12.5466 6.38 12.5466Z" fill="white"/>
<path d="M13.6667 8.5H2.44667C2.17334 8.5 1.94667 8.27333 1.94667 8C1.94667 7.72667 2.17334 7.5 2.44667 7.5H13.6667C13.94 7.5 14.1667 7.72667 14.1667 8C14.1667 8.27333 13.94 8.5 13.6667 8.5Z" fill="white"/>
</svg>
