<svg width="32" height="32" viewBox="0 0 32 32" fill="none" xmlns="http://www.w3.org/2000/svg">
<path d="M27.7531 15.6779H4.55144C3.31401 15.6779 2.29572 14.6596 2.29572 13.4222V9.14275C2.29572 8.26624 2.90151 7.37685 3.71357 7.05461L15.3144 2.4143C15.8042 2.22095 16.5003 2.22095 16.9902 2.4143L28.591 7.05461C29.4031 7.37685 30.0089 8.27913 30.0089 9.14275V13.4222C30.0089 14.6596 28.9906 15.6779 27.7531 15.6779ZM16.1523 4.1931C16.1007 4.1931 16.0492 4.19303 16.0234 4.20592L4.43539 8.84631C4.35805 8.88498 4.22919 9.05252 4.22919 9.14275V13.4222C4.22919 13.6026 4.37098 13.7444 4.55144 13.7444H27.7531C27.9336 13.7444 28.0754 13.6026 28.0754 13.4222V9.14275C28.0754 9.05252 27.9594 8.88498 27.8692 8.84631L16.2683 4.20592C16.2425 4.19303 16.2038 4.1931 16.1523 4.1931Z" fill="#535353"/>
<path d="M29.0421 29.8567H3.26245C2.73397 29.8567 2.29572 29.4185 2.29572 28.89V25.0231C2.29572 23.7856 3.31401 22.7673 4.55144 22.7673H27.7531C28.9906 22.7673 30.0089 23.7856 30.0089 25.0231V28.89C30.0089 29.4185 29.5706 29.8567 29.0421 29.8567ZM4.22919 27.9233H28.0754V25.0231C28.0754 24.8426 27.9336 24.7008 27.7531 24.7008H4.55144C4.37098 24.7008 4.22919 24.8426 4.22919 25.0231V27.9233Z" fill="#535353"/>
<path d="M5.84041 24.701C5.31193 24.701 4.87367 24.2627 4.87367 23.7342V14.7114C4.87367 14.1829 5.31193 13.7446 5.84041 13.7446C6.36889 13.7446 6.80715 14.1829 6.80715 14.7114V23.7342C6.80715 24.2627 6.36889 24.701 5.84041 24.701Z" fill="#535353"/>
<path d="M10.9963 24.701C10.4679 24.701 10.0296 24.2627 10.0296 23.7342V14.7114C10.0296 14.1829 10.4679 13.7446 10.9963 13.7446C11.5248 13.7446 11.9631 14.1829 11.9631 14.7114V23.7342C11.9631 24.2627 11.5248 24.701 10.9963 24.701Z" fill="#535353"/>
<path d="M16.1523 24.701C15.6238 24.701 15.1855 24.2627 15.1855 23.7342V14.7114C15.1855 14.1829 15.6238 13.7446 16.1523 13.7446C16.6808 13.7446 17.119 14.1829 17.119 14.7114V23.7342C17.119 24.2627 16.6808 24.701 16.1523 24.701Z" fill="#535353"/>
<path d="M21.3082 24.701C20.7797 24.701 20.3415 24.2627 20.3415 23.7342V14.7114C20.3415 14.1829 20.7797 13.7446 21.3082 13.7446C21.8367 13.7446 22.275 14.1829 22.275 14.7114V23.7342C22.275 24.2627 21.8367 24.701 21.3082 24.701Z" fill="#535353"/>
<path d="M26.4641 24.701C25.9357 24.701 25.4974 24.2627 25.4974 23.7342V14.7114C25.4974 14.1829 25.9357 13.7446 26.4641 13.7446C26.9926 13.7446 27.4309 14.1829 27.4309 14.7114V23.7342C27.4309 24.2627 26.9926 24.701 26.4641 24.701Z" fill="#535353"/>
<path d="M30.3311 29.8568H1.97347C1.44498 29.8568 1.00673 29.4186 1.00673 28.8901C1.00673 28.3616 1.44498 27.9233 1.97347 27.9233H30.3311C30.8596 27.9233 31.2978 28.3616 31.2978 28.8901C31.2978 29.4186 30.8596 29.8568 30.3311 29.8568Z" fill="#535353"/>
<path d="M16.1523 12.4555C14.5539 12.4555 13.2521 11.1536 13.2521 9.55524C13.2521 7.9569 14.5539 6.65503 16.1523 6.65503C17.7506 6.65503 19.0525 7.9569 19.0525 9.55524C19.0525 11.1536 17.7506 12.4555 16.1523 12.4555ZM16.1523 8.5885C15.6238 8.5885 15.1855 9.02676 15.1855 9.55524C15.1855 10.0837 15.6238 10.522 16.1523 10.522C16.6808 10.522 17.119 10.0837 17.119 9.55524C17.119 9.02676 16.6808 8.5885 16.1523 8.5885Z" fill="#535353"/>
</svg>
