<svg width="18" height="17" viewBox="0 0 18 17" fill="none" xmlns="http://www.w3.org/2000/svg">
<path d="M6.28802 4.40116C6.01005 4.40116 5.77954 4.17065 5.77954 3.89268V1.85879C5.77954 1.58082 6.01005 1.35031 6.28802 1.35031C6.56598 1.35031 6.79649 1.58082 6.79649 1.85879V3.89268C6.79649 4.17065 6.56598 4.40116 6.28802 4.40116Z" fill="#05A8C4"/>
<path d="M11.7118 4.40116C11.4338 4.40116 11.2033 4.17065 11.2033 3.89268V1.85879C11.2033 1.58082 11.4338 1.35031 11.7118 1.35031C11.9897 1.35031 12.2203 1.58082 12.2203 1.85879V3.89268C12.2203 4.17065 11.9897 4.40116 11.7118 4.40116Z" fill="#05A8C4"/>
<path d="M6.62703 10.3334C6.5389 10.3334 6.45076 10.313 6.3694 10.2791C6.28127 10.2452 6.21347 10.1978 6.14568 10.1368C6.02364 10.0079 5.94907 9.83846 5.94907 9.65541C5.94907 9.56727 5.96941 9.47913 6.0033 9.39778C6.0372 9.31642 6.08466 9.24185 6.14568 9.17406C6.21347 9.11304 6.28127 9.06557 6.3694 9.03167C6.61347 8.92997 6.91856 8.98423 7.10839 9.17406C7.23042 9.30287 7.305 9.47913 7.305 9.65541C7.305 9.69608 7.29822 9.74355 7.29144 9.79101C7.28466 9.83169 7.2711 9.87236 7.25076 9.91304C7.2372 9.95371 7.21686 9.99439 7.18975 10.0351C7.16941 10.069 7.13551 10.1029 7.10839 10.1368C6.97957 10.2588 6.8033 10.3334 6.62703 10.3334Z" fill="#05A8C4"/>
<path d="M8.9999 10.3334C8.91176 10.3334 8.82362 10.313 8.74227 10.2791C8.65413 10.2452 8.58634 10.1978 8.51854 10.1367C8.39651 10.0079 8.32193 9.83845 8.32193 9.6554C8.32193 9.56726 8.34227 9.47912 8.37617 9.39777C8.41007 9.31641 8.45752 9.24184 8.51854 9.17405C8.58634 9.11303 8.65413 9.06556 8.74227 9.03166C8.98634 8.92319 9.29142 8.98422 9.48125 9.17405C9.60329 9.30286 9.67786 9.47913 9.67786 9.6554C9.67786 9.69608 9.67108 9.74354 9.6643 9.791C9.65752 9.83168 9.64396 9.87235 9.62362 9.91303C9.61006 9.95371 9.58973 9.99438 9.56261 10.0351C9.54227 10.069 9.50837 10.1028 9.48125 10.1367C9.35244 10.2588 9.17617 10.3334 8.9999 10.3334Z" fill="#05A8C4"/>
<path d="M11.3728 10.3334C11.2847 10.3334 11.1965 10.313 11.1152 10.2791C11.0271 10.2452 10.9593 10.1978 10.8915 10.1367C10.8643 10.1028 10.8372 10.069 10.8101 10.0351C10.783 9.99438 10.7627 9.95371 10.7491 9.91303C10.7288 9.87235 10.7152 9.83168 10.7084 9.791C10.7016 9.74354 10.6949 9.69608 10.6949 9.6554C10.6949 9.47913 10.7694 9.30286 10.8915 9.17405C10.9593 9.11303 11.0271 9.06556 11.1152 9.03166C11.366 8.92319 11.6643 8.98422 11.8542 9.17405C11.9762 9.30286 12.0508 9.47913 12.0508 9.6554C12.0508 9.69608 12.044 9.74354 12.0372 9.791C12.0304 9.83168 12.0169 9.87235 11.9965 9.91303C11.983 9.95371 11.9627 9.99438 11.9355 10.0351C11.9152 10.069 11.8813 10.1028 11.8542 10.1367C11.7254 10.2588 11.5491 10.3334 11.3728 10.3334Z" fill="#05A8C4"/>
<path d="M6.62703 12.7062C6.5389 12.7062 6.45076 12.6859 6.3694 12.652C6.28805 12.6181 6.21347 12.5706 6.14568 12.5096C6.02364 12.3808 5.94907 12.2046 5.94907 12.0283C5.94907 11.9401 5.96941 11.852 6.0033 11.7707C6.0372 11.6825 6.08466 11.6079 6.14568 11.5469C6.39652 11.2961 6.85754 11.2961 7.10839 11.5469C7.23042 11.6757 7.305 11.852 7.305 12.0283C7.305 12.2046 7.23042 12.3808 7.10839 12.5096C6.97957 12.6317 6.8033 12.7062 6.62703 12.7062Z" fill="#05A8C4"/>
<path d="M8.9999 12.7062C8.82362 12.7062 8.64735 12.6317 8.51854 12.5096C8.39651 12.3808 8.32193 12.2046 8.32193 12.0283C8.32193 11.9401 8.34227 11.852 8.37617 11.7707C8.41007 11.6825 8.45752 11.6079 8.51854 11.5469C8.76939 11.2961 9.2304 11.2961 9.48125 11.5469C9.54227 11.6079 9.58973 11.6825 9.62362 11.7707C9.65752 11.852 9.67786 11.9401 9.67786 12.0283C9.67786 12.2046 9.60329 12.3808 9.48125 12.5096C9.35244 12.6317 9.17617 12.7062 8.9999 12.7062Z" fill="#05A8C4"/>
<path d="M11.3728 12.7063C11.1965 12.7063 11.0203 12.6317 10.8915 12.5097C10.8304 12.4486 10.783 12.3741 10.7491 12.2859C10.7152 12.2046 10.6949 12.1164 10.6949 12.0283C10.6949 11.9402 10.7152 11.852 10.7491 11.7707C10.783 11.6825 10.8304 11.608 10.8915 11.547C11.0474 11.391 11.2847 11.3164 11.5016 11.3639C11.5491 11.3707 11.5898 11.3842 11.6304 11.4046C11.6711 11.4181 11.7118 11.4385 11.7525 11.4656C11.7864 11.4859 11.8203 11.5198 11.8542 11.547C11.9762 11.6758 12.0508 11.852 12.0508 12.0283C12.0508 12.2046 11.9762 12.3808 11.8542 12.5097C11.7254 12.6317 11.5491 12.7063 11.3728 12.7063Z" fill="#05A8C4"/>
<path d="M14.7626 7.17405H3.23717C2.95921 7.17405 2.7287 6.94355 2.7287 6.66558C2.7287 6.38761 2.95921 6.1571 3.23717 6.1571H14.7626C15.0406 6.1571 15.2711 6.38761 15.2711 6.66558C15.2711 6.94355 15.0406 7.17405 14.7626 7.17405Z" fill="#05A8C4"/>
<path d="M11.7118 15.9266H6.28805C3.81347 15.9266 2.38974 14.5028 2.38974 12.0283V6.26555C2.38974 3.79098 3.81347 2.36725 6.28805 2.36725H11.7118C14.1864 2.36725 15.6101 3.79098 15.6101 6.26555V12.0283C15.6101 14.5028 14.1864 15.9266 11.7118 15.9266ZM6.28805 3.3842C4.34906 3.3842 3.40669 4.32657 3.40669 6.26555V12.0283C3.40669 13.9672 4.34906 14.9096 6.28805 14.9096H11.7118C13.6508 14.9096 14.5931 13.9672 14.5931 12.0283V6.26555C14.5931 4.32657 13.6508 3.3842 11.7118 3.3842H6.28805Z" fill="#05A8C4"/>
</svg>
