<svg width="14" height="14" viewBox="0 0 14 14" fill="none" xmlns="http://www.w3.org/2000/svg">
<path fill-rule="evenodd" clip-rule="evenodd" d="M5.78882 0.70617C5.92937 0.686014 6.07061 0.727586 6.18298 0.81702C6.29845 0.907714 6.37067 1.03872 6.38637 1.18547C6.41958 1.48211 6.20554 1.75042 5.90932 1.78381C3.86621 2.0118 2.27821 3.60337 2.04848 5.65282C2.01773 5.9274 1.78737 6.13463 1.51245 6.13463C1.49171 6.13463 1.47161 6.13337 1.45093 6.13085C1.30717 6.11509 1.17917 6.04394 1.08873 5.93055C0.998976 5.81723 0.958198 5.67613 0.974522 5.5319C1.26072 2.9748 3.2398 0.990221 5.78882 0.70617ZM5.74955 2.90074C6.04962 2.84531 6.32517 3.03678 6.38227 3.32965C6.43937 3.62252 6.24733 3.90846 5.95546 3.96577C5.07669 4.13708 4.39815 4.8173 4.22622 5.69905V5.69968C4.17725 5.9535 3.95376 6.13804 3.69642 6.13804C3.66188 6.13804 3.62741 6.13488 3.59224 6.12858C3.30037 6.07003 3.10833 5.78471 3.16543 5.49121C3.42213 4.17424 4.43584 3.15708 5.74955 2.90074ZM4.75248 8.95157C4.46799 8.78752 4.14655 8.60222 3.74117 8.68844C3.37398 8.7659 2.12241 9.78181 1.77968 10.1339C1.55499 10.3644 1.43007 10.6025 1.4106 10.8406C1.37675 11.7746 2.64591 12.8409 2.8769 12.9738C3.18383 13.1949 3.54094 13.3063 3.94203 13.3063C4.35189 13.3063 4.80889 13.1898 5.30724 12.9574C8.01124 11.8288 12.142 7.77961 13.2342 5.09656C13.6873 4.09766 13.6905 3.27384 13.2417 2.65473C13.0628 2.36437 12.0428 1.1507 11.1296 1.18912C10.8866 1.2099 10.6506 1.33461 10.419 1.56135C10.0688 1.9046 9.07831 3.15985 9.00173 3.52829C8.917 3.93768 9.10279 4.2633 9.26787 4.54924C9.30308 4.61071 9.35052 4.68366 9.40249 4.76357C9.59974 5.06687 9.86228 5.47056 9.76938 5.72828C9.10342 7.36332 7.56501 8.78985 5.92924 9.46C5.67632 9.55196 5.27283 9.2875 4.97049 9.08941C4.89177 9.03779 4.81986 8.99065 4.75929 8.95548L4.75248 8.95157Z" fill="#747474"/>
</svg>
