<svg width="17" height="17" viewBox="0 0 17 17" fill="none" xmlns="http://www.w3.org/2000/svg">
<path d="M3.28208 11.2547C3.154 11.2547 3.02592 11.2075 2.92481 11.1064C2.72933 10.9109 2.72933 10.5874 2.92481 10.3919L10.9801 2.33655C11.1756 2.14107 11.4992 2.14107 11.6947 2.33655C11.8901 2.53204 11.8901 2.8556 11.6947 3.05108L3.63934 11.1131C3.54497 11.2075 3.41015 11.2547 3.28208 11.2547Z" fill="#05AAC6"/>
<path d="M8.11533 12.8724C7.98725 12.8724 7.85918 12.8252 7.75806 12.7241C7.56258 12.5286 7.56258 12.2051 7.75806 12.0096L8.56697 11.2007C8.76245 11.0052 9.08601 11.0052 9.2815 11.2007C9.47698 11.3962 9.47698 11.7197 9.2815 11.9152L8.47259 12.7241C8.37822 12.8185 8.25015 12.8724 8.11533 12.8724Z" fill="#05AAC6"/>
<path d="M9.92856 11.059C9.80048 11.059 9.67241 11.0118 9.5713 10.9107C9.37581 10.7152 9.37581 10.3916 9.5713 10.1962L11.1824 8.58509C11.3778 8.38961 11.7014 8.38961 11.8969 8.58509C12.0924 8.78057 12.0924 9.10413 11.8969 9.29962L10.2858 10.9107C10.1915 11.0051 10.0566 11.059 9.92856 11.059Z" fill="#05AAC6"/>
<path d="M8.11533 15.38C7.45473 15.38 6.79412 14.9755 5.99196 14.1734L2.68221 10.8636C1.07114 9.25255 1.07788 8.21446 2.70243 6.58991L7.17835 2.11399C8.8029 0.489443 9.84099 0.482703 11.452 2.09377L14.7618 5.40352C16.3729 7.01458 16.3661 8.05268 14.7416 9.67722L10.2657 14.1531C9.45002 14.9688 8.78267 15.38 8.11533 15.38ZM9.32868 1.89828C8.97816 1.89828 8.53326 2.18814 7.89288 2.82852L3.41696 7.30444C2.77658 7.94482 2.48672 8.38972 2.48672 8.7335C2.48672 9.08403 2.75635 9.5087 3.39674 10.1491L6.70649 13.4588C7.34687 14.0992 7.76481 14.3689 8.11533 14.3689C8.11533 14.3689 8.11533 14.3689 8.12207 14.3689C8.47259 14.3689 8.91075 14.079 9.55113 13.4386L14.0271 8.96269C14.6674 8.32231 14.9573 7.87741 14.9573 7.53363C14.9573 7.18311 14.6877 6.75843 14.0473 6.11805L10.7375 2.8083C10.1039 2.16791 9.67921 1.89828 9.32868 1.89828Z" fill="#05AAC6"/>
<path d="M15.4628 15.38H1.98109C1.70471 15.38 1.47552 15.1508 1.47552 14.8745C1.47552 14.5981 1.70471 14.3689 1.98109 14.3689H15.4628C15.7392 14.3689 15.9683 14.5981 15.9683 14.8745C15.9683 15.1508 15.7392 15.38 15.4628 15.38Z" fill="#05AAC6"/>
</svg>
