<svg width="31" height="31" viewBox="0 0 31 31" fill="none" xmlns="http://www.w3.org/2000/svg">
<path d="M15.2119 28.9934C7.86219 28.9934 1.88824 23.0195 1.88824 15.6698C1.88824 8.32013 7.86219 2.34619 15.2119 2.34619C22.5616 2.34619 28.5355 8.32013 28.5355 15.6698C28.5355 23.0195 22.5616 28.9934 15.2119 28.9934ZM15.2119 4.2053C8.89089 4.2053 3.74735 9.34884 3.74735 15.6698C3.74735 21.9908 8.89089 27.1343 15.2119 27.1343C21.5328 27.1343 26.6764 21.9908 26.6764 15.6698C26.6764 9.34884 21.5328 4.2053 15.2119 4.2053Z" fill="#535353"/>
<path d="M26.5773 11.6417C26.5153 11.6417 26.4409 11.6293 26.379 11.6169C22.7351 10.8237 19.0541 10.8237 15.4102 11.6169C14.902 11.7285 14.4187 11.4062 14.3071 10.9105C14.1956 10.4023 14.5178 9.91896 15.0136 9.80741C18.9177 8.95222 22.8714 8.95222 26.7756 9.80741C27.2713 9.91896 27.5936 10.4147 27.482 10.9105C27.3953 11.3443 27.0111 11.6417 26.5773 11.6417Z" fill="#535353"/>
<path d="M10.9235 19.0782C10.6632 19.0782 10.403 18.9666 10.2171 18.7559C7.6391 15.7937 5.68083 12.4101 4.37946 8.69193L5.23465 8.30771L6.11462 8.01025L6.13941 8.08462C7.35403 11.5674 9.20075 14.7526 11.63 17.5413C11.9646 17.9255 11.9274 18.5204 11.5432 18.8551C11.3573 19.0038 11.1342 19.0782 10.9235 19.0782Z" fill="#535353"/>
<path d="M13.8238 28.9189C13.6007 28.9189 13.3776 28.8446 13.2041 28.6835C12.8198 28.3364 12.7951 27.7539 13.1421 27.3697C15.6209 24.643 17.4552 21.4825 18.5955 17.975C18.7566 17.4916 19.3019 17.1694 19.7853 17.3305C20.2687 17.4916 20.5537 17.9626 20.405 18.446C19.1532 22.3129 17.1826 25.7089 14.5302 28.6339C14.3319 28.8198 14.0716 28.9189 13.8238 28.9189Z" fill="#535353"/>
</svg>
