<svg width="24" height="24" viewBox="0 0 24 24" fill="none" xmlns="http://www.w3.org/2000/svg">
<path d="M16.67 20.83C16.65 20.83 16.64 20.83 16.63 20.83H5.54003C2.60003 20.62 1.28003 18.35 1.28003 16.34C1.28003 14.54 2.33003 12.54 4.61003 11.99C3.61003 8.15 5.51003 5.46 7.75003 4.19C10.35 2.71 14.22 2.7 16.57 5.55C16.59 5.58 16.61 5.61 16.63 5.64C17.33 6.53 17.82 7.6 18.1 8.84C19.33 9.11 20.39 9.77 21.22 10.75C23.11 12.98 23.47 16.86 20.77 19.24C19.65 20.27 18.2 20.83 16.67 20.83ZM11.49 4.7C10.43 4.7 9.38003 4.99 8.50003 5.49C6.08003 6.87 5.26003 9.43 6.30003 12.35C6.38003 12.58 6.35003 12.84 6.21003 13.03C6.07003 13.22 5.84003 13.35 5.60003 13.35C3.66003 13.49 2.79003 14.95 2.79003 16.34C2.79003 17.73 3.66003 19.19 5.60003 19.34H16.64C17.8 19.35 18.92 18.92 19.77 18.14L19.78 18.13C21.81 16.35 21.51 13.42 20.08 11.73C19.38 10.9 18.45 10.39 17.38 10.25C17.05 10.21 16.79 9.96 16.74 9.63C16.53 8.39 16.09 7.35 15.43 6.53C15.41 6.51 15.4 6.48 15.38 6.46C14.32 5.22 12.9 4.7 11.49 4.7Z" fill="#2D2D2D"/>
<path d="M7.26003 13.76C7.15003 13.76 7.03003 13.73 6.93003 13.68C6.51003 13.47 6.05003 13.36 5.58003 13.35C5.17003 13.34 4.84003 13 4.84003 12.59C4.85003 12.18 5.24003 11.84 5.60003 11.85C6.29003 11.86 6.98003 12.03 7.59003 12.34C7.96003 12.52 8.11003 12.98 7.93003 13.35C7.80003 13.61 7.54003 13.76 7.26003 13.76Z" fill="#2D2D2D"/>
<path d="M15.85 10.67C15.57 10.67 15.31 10.52 15.18 10.25C14.99 9.88 15.15 9.43 15.52 9.24C16.14 8.93 16.83 8.76 17.51 8.75C17.91 8.74 18.27 9.07 18.27 9.49C18.28 9.9 17.95 10.25 17.53 10.25C17.07 10.26 16.6 10.37 16.18 10.58C16.07 10.64 15.96 10.67 15.85 10.67Z" fill="#2D2D2D"/>
<path d="M20.65 11.98C20.44 11.98 20.22 11.89 20.07 11.71C19.38 10.88 18.44 10.37 17.37 10.23C17.04 10.19 16.78 9.94 16.73 9.61C16.52 8.37 16.08 7.33 15.42 6.51C15.31 6.38 15.25 6.21 15.25 6.04C15.25 5.84 15.33 5.64 15.47 5.5C16.27 4.69 17.33 4.25 18.47 4.25C20.81 4.25 22.72 6.16 22.72 8.5C22.72 9.8 22.14 11.01 21.12 11.82C20.98 11.93 20.82 11.98 20.65 11.98ZM18.11 8.84C19.07 9.05 19.94 9.5 20.66 10.16C21.02 9.69 21.22 9.11 21.22 8.5C21.22 6.98 19.99 5.75 18.47 5.75C17.95 5.75 17.45 5.89 17.02 6.17C17.53 6.94 17.89 7.84 18.11 8.84Z" fill="#2D2D2D"/>
</svg>
