<svg width="35" height="36" viewBox="0 0 35 36" fill="none" xmlns="http://www.w3.org/2000/svg">
<path d="M32.0589 33.278H3.63513C3.05245 33.278 2.56924 32.7948 2.56924 32.2121C2.56924 31.6294 3.05245 31.1462 3.63513 31.1462H32.0589C32.6415 31.1462 33.1248 31.6294 33.1248 32.2121C33.1248 32.7948 32.6415 33.278 32.0589 33.278Z" fill="white"/>
<path d="M21.4 9.79991C20.064 9.79991 18.7281 9.54413 17.4491 9.03251C17.0511 8.87617 16.7811 8.47823 16.7811 8.03766V3.7741C16.7811 3.4188 16.9516 3.09194 17.2501 2.89297C17.5485 2.694 17.918 2.65134 18.2449 2.77925C20.2772 3.58933 22.5227 3.58933 24.555 2.77925C24.8819 2.65134 25.2514 2.694 25.5498 2.89297C25.8483 3.09194 26.0188 3.4188 26.0188 3.7741V8.03766C26.0188 8.47823 25.7488 8.86196 25.3509 9.03251C24.0718 9.54413 22.7359 9.79991 21.4 9.79991ZM18.9129 7.29861C20.533 7.79603 22.2669 7.79603 23.887 7.29861V5.23796C22.2527 5.63589 20.5472 5.63589 18.9129 5.23796V7.29861Z" fill="white"/>
<path d="M17.847 13.3814C17.2643 13.3814 16.7811 12.8982 16.7811 12.3155V8.05197C16.7811 7.46929 17.2643 6.98608 17.847 6.98608C18.4297 6.98608 18.9129 7.46929 18.9129 8.05197V12.3155C18.9129 12.8982 18.4297 13.3814 17.847 13.3814Z" fill="white"/>
<path d="M29.2165 33.2781H6.47751C5.89482 33.2781 5.41162 32.7949 5.41162 32.2123V16.5792C5.41162 13.1399 7.3018 11.2498 10.7411 11.2498H24.9529C28.3922 11.2498 30.2824 13.1399 30.2824 16.5792V32.2123C30.2824 32.7949 29.7992 33.2781 29.2165 33.2781ZM7.5434 31.1464H28.1506V16.5792C28.1506 14.3337 27.1984 13.3815 24.9529 13.3815H10.7411C8.4956 13.3815 7.5434 14.3337 7.5434 16.5792V31.1464Z" fill="white"/>
<path d="M28.3923 19.0661H7.30191C6.71923 19.0661 6.23602 18.5829 6.23602 18.0002C6.23602 17.4175 6.71923 16.9343 7.30191 16.9343H28.3923C28.975 16.9343 29.4582 17.4175 29.4582 18.0002C29.4582 18.5829 28.975 19.0661 28.3923 19.0661Z" fill="white"/>
<path d="M13.2143 18.0002H11.0825V32.2121H13.2143V18.0002Z" fill="white"/>
<path d="M18.899 18.0002H16.7672V32.2121H18.899V18.0002Z" fill="white"/>
<path d="M24.5837 18.0002H22.452V32.2121H24.5837V18.0002Z" fill="white"/>
</svg>
