<svg width="16" height="16" viewBox="0 0 16 16" fill="none" xmlns="http://www.w3.org/2000/svg">
<path d="M8.00001 15.1666C7.58001 15.1666 7.18667 15.0067 6.89334 14.7067L5.88002 13.6933C5.80001 13.6133 5.58668 13.5267 5.48001 13.5267H4.04001C3.17334 13.5267 2.47334 12.8266 2.47334 11.9599V10.52C2.47334 10.4133 2.38667 10.2 2.30667 10.12L1.29335 9.10667C1.00001 8.81333 0.833344 8.41998 0.833344 7.99998C0.833344 7.57998 0.993345 7.18662 1.29335 6.89329L2.30667 5.87994C2.38667 5.79994 2.47334 5.58662 2.47334 5.47996V4.04002C2.47334 3.17335 3.17334 2.47328 4.04001 2.47328H5.48001C5.58668 2.47328 5.80001 2.38662 5.88002 2.30662L6.89334 1.29327C7.48001 0.706605 8.52001 0.706605 9.10668 1.29327L10.12 2.30662C10.2 2.38662 10.4133 2.47328 10.52 2.47328H11.96C12.8267 2.47328 13.5267 3.17335 13.5267 4.04002V5.47996C13.5267 5.58662 13.6133 5.79994 13.6933 5.87994L14.7067 6.89329C15 7.18662 15.1667 7.57998 15.1667 7.99998C15.1667 8.41998 15.0067 8.81333 14.7067 9.10667L13.6933 10.12C13.6133 10.2 13.5267 10.4133 13.5267 10.52V11.9599C13.5267 12.8266 12.8267 13.5267 11.96 13.5267H10.52C10.4133 13.5267 10.2 13.6133 10.12 13.6933L9.10668 14.7067C8.81335 15.0067 8.42001 15.1666 8.00001 15.1666ZM3.01334 9.41331C3.28 9.67997 3.47334 10.1467 3.47334 10.52V11.9599C3.47334 12.2733 3.72668 12.5267 4.04001 12.5267H5.48001C5.85334 12.5267 6.32001 12.72 6.58668 12.9866L7.60001 14C7.81334 14.2133 8.18668 14.2133 8.40001 14L9.41334 12.9866C9.68001 12.72 10.1467 12.5267 10.52 12.5267H11.96C12.2733 12.5267 12.5267 12.2733 12.5267 11.9599V10.52C12.5267 10.1467 12.72 9.67997 12.9867 9.41331L14 8.39996C14.1067 8.29329 14.1667 8.15331 14.1667 7.99998C14.1667 7.84664 14.1067 7.70666 14 7.59999L12.9867 6.58665C12.72 6.31998 12.5267 5.85329 12.5267 5.47996V4.04002C12.5267 3.72668 12.2733 3.47328 11.96 3.47328H10.52C10.1467 3.47328 9.68001 3.27999 9.41334 3.01332L8.40001 1.99998C8.18668 1.78664 7.81334 1.78664 7.60001 1.99998L6.58668 3.01332C6.32001 3.27999 5.85334 3.47328 5.48001 3.47328H4.04001C3.72668 3.47328 3.47334 3.72668 3.47334 4.04002V5.47996C3.47334 5.85329 3.28 6.31998 3.01334 6.58665L2.00001 7.59999C1.89334 7.70666 1.83334 7.84664 1.83334 7.99998C1.83334 8.15331 1.89334 8.29329 2.00001 8.39996L3.01334 9.41331Z" fill="white"/>
<path d="M10.0002 10.6666C9.62682 10.6666 9.32681 10.3666 9.32681 9.99992C9.32681 9.63325 9.62681 9.33325 9.99348 9.33325C10.3601 9.33325 10.6601 9.63325 10.6601 9.99992C10.6601 10.3666 10.3668 10.6666 10.0002 10.6666Z" fill="white"/>
<path d="M6.00668 6.66658C5.63335 6.66658 5.33334 6.36659 5.33334 5.99992C5.33334 5.63325 5.63334 5.33325 6.00001 5.33325C6.36668 5.33325 6.66668 5.63325 6.66668 5.99992C6.66668 6.36659 6.37335 6.66658 6.00668 6.66658Z" fill="white"/>
<path d="M5.99995 10.5001C5.87328 10.5001 5.74662 10.4534 5.64662 10.3534C5.45328 10.1601 5.45328 9.84004 5.64662 9.64671L9.64662 5.64671C9.83995 5.45338 10.1599 5.45338 10.3533 5.64671C10.5466 5.84004 10.5466 6.16008 10.3533 6.35341L6.35328 10.3534C6.25328 10.4534 6.12662 10.5001 5.99995 10.5001Z" fill="white"/>
</svg>
