<svg width="16" height="16" viewBox="0 0 16 16" fill="none" xmlns="http://www.w3.org/2000/svg">
<path d="M2 3.5H14C14.2733 3.5 14.5 3.27333 14.5 3C14.5 2.72667 14.2733 2.5 14 2.5H2C1.72667 2.5 1.5 2.72667 1.5 3C1.5 3.27333 1.72667 3.5 2 3.5Z" fill="#2D2D2D"/>
<path d="M1.99999 6.83325H8.31332C8.58666 6.83325 8.81332 6.60659 8.81332 6.33325C8.81332 6.05992 8.58666 5.83325 8.31332 5.83325H1.99999C1.72666 5.83325 1.49999 6.05992 1.49999 6.33325C1.49999 6.60659 1.72666 6.83325 1.99999 6.83325Z" fill="#2D2D2D"/>
<path d="M2 10.1667H14C14.2733 10.1667 14.5 9.94008 14.5 9.66675C14.5 9.39341 14.2733 9.16675 14 9.16675H2C1.72667 9.16675 1.5 9.39341 1.5 9.66675C1.5 9.94008 1.72667 10.1667 2 10.1667Z" fill="#2D2D2D"/>
<path d="M1.99999 13.5H8.31332C8.58666 13.5 8.81332 13.2733 8.81332 13C8.81332 12.7267 8.58666 12.5 8.31332 12.5H1.99999C1.72666 12.5 1.49999 12.7267 1.49999 13C1.49999 13.2733 1.72666 13.5 1.99999 13.5Z" fill="#2D2D2D"/>
</svg>
