<svg width="24" height="24" viewBox="0 0 24 24" fill="none" xmlns="http://www.w3.org/2000/svg">
<path d="M5.48413 22.35C3.18021 22.35 1.23073 20.4005 1.23073 18.0966V12.0316C1.1815 9.15657 2.24485 6.44897 4.23371 4.42073C6.22257 2.40233 8.89079 1.27991 11.7658 1.27991C17.6339 1.27991 22.3993 6.05514 22.3993 11.9134V17.9784C22.3993 20.3217 20.4892 22.2318 18.1459 22.2318C15.8419 22.2318 13.8925 20.2824 13.8925 17.9784V15.2118C13.8925 13.7841 15.0149 12.6617 16.4425 12.6617C17.8702 12.6617 18.9926 13.7841 18.9926 15.2118V18.195C18.9926 18.5987 18.6579 18.9335 18.2542 18.9335C17.8505 18.9335 17.5157 18.5987 17.5157 18.195V15.2118C17.5157 14.5422 16.9742 14.1386 16.4425 14.1386C15.773 14.1386 15.3693 14.6801 15.3693 15.2118V17.9784C15.3693 19.4849 16.6395 20.755 18.1459 20.755C19.6523 20.755 20.9224 19.4849 20.9224 17.9784V11.9134C20.9224 6.86249 16.8167 2.75678 11.7658 2.75678C9.29447 2.75678 7.00039 3.71183 5.28721 5.45454C3.57404 7.19725 2.65838 9.53071 2.70761 12.0119V18.0966C2.70761 19.603 3.97772 20.8731 5.48413 20.8731C6.99054 20.8731 8.26066 19.603 8.26066 18.0966V15.3299C8.26066 14.6604 7.71913 14.2567 7.18746 14.2567C6.51794 14.2567 6.11426 14.7982 6.11426 15.3299V18.2049C6.11426 18.6086 5.77951 18.9433 5.37583 18.9433C4.97215 18.9433 4.63739 18.6086 4.63739 18.2049V15.3299C4.63739 13.9023 5.75981 12.7798 7.18746 12.7798C8.61511 12.7798 9.73753 13.9023 9.73753 15.3299V18.0966C9.73753 20.4005 7.78806 22.35 5.48413 22.35Z" fill="#2D2D2D"/>
</svg>
