<svg width="16" height="16" viewBox="0 0 16 16" fill="none" xmlns="http://www.w3.org/2000/svg">
<path d="M3.71334 15.1334C2.15334 15.1334 0.833337 13.8134 0.833337 12.2534V8.1467C0.800004 6.20003 1.52 4.3667 2.86667 2.99337C4.21334 1.6267 6.02 0.866699 7.96667 0.866699C11.94 0.866699 15.1667 4.10003 15.1667 8.0667V12.1734C15.1667 13.76 13.8733 15.0534 12.2867 15.0534C10.7267 15.0534 9.40667 13.7334 9.40667 12.1734V10.3C9.40667 9.33337 10.1667 8.57337 11.1333 8.57337C12.1 8.57337 12.86 9.33337 12.86 10.3V12.32C12.86 12.5934 12.6333 12.82 12.36 12.82C12.0867 12.82 11.86 12.5934 11.86 12.32V10.3C11.86 9.8467 11.4933 9.57337 11.1333 9.57337C10.68 9.57337 10.4067 9.94003 10.4067 10.3V12.1734C10.4067 13.1934 11.2667 14.0534 12.2867 14.0534C13.3067 14.0534 14.1667 13.1934 14.1667 12.1734V8.0667C14.1667 4.6467 11.3867 1.8667 7.96667 1.8667C6.29334 1.8667 4.74 2.51337 3.58 3.69337C2.42 4.87337 1.8 6.45337 1.83334 8.13337V12.2534C1.83334 13.2734 2.69334 14.1334 3.71334 14.1334C4.73334 14.1334 5.59334 13.2734 5.59334 12.2534V10.38C5.59334 9.9267 5.22667 9.65337 4.86667 9.65337C4.41334 9.65337 4.14 10.02 4.14 10.38V12.3267C4.14 12.6 3.91334 12.8267 3.64 12.8267C3.36667 12.8267 3.14 12.6 3.14 12.3267V10.38C3.14 9.41337 3.9 8.65337 4.86667 8.65337C5.83334 8.65337 6.59334 9.41337 6.59334 10.38V12.2534C6.59334 13.8134 5.27334 15.1334 3.71334 15.1334Z" fill="white"/>
</svg>
