<svg width="18" height="18" viewBox="0 0 18 18" fill="none" xmlns="http://www.w3.org/2000/svg">
<path d="M4.17753 17.0251C2.42253 17.0251 0.937525 15.5401 0.937525 13.7851V9.1651C0.900025 6.9751 1.71003 4.9126 3.22503 3.3676C4.74003 1.8301 6.77252 0.975098 8.96253 0.975098C13.4325 0.975098 17.0625 4.6126 17.0625 9.0751V13.6951C17.0625 15.4801 15.6075 16.9351 13.8225 16.9351C12.0675 16.9351 10.5825 15.4501 10.5825 13.6951V11.5876C10.5825 10.5001 11.4375 9.6451 12.525 9.6451C13.6125 9.6451 14.4675 10.5001 14.4675 11.5876V13.8601C14.4675 14.1676 14.2125 14.4226 13.905 14.4226C13.5975 14.4226 13.3425 14.1676 13.3425 13.8601V11.5876C13.3425 11.0776 12.93 10.7701 12.525 10.7701C12.015 10.7701 11.7075 11.1826 11.7075 11.5876V13.6951C11.7075 14.8426 12.675 15.8101 13.8225 15.8101C14.97 15.8101 15.9375 14.8426 15.9375 13.6951V9.0751C15.9375 5.2276 12.81 2.1001 8.96253 2.1001C7.08003 2.1001 5.33253 2.8276 4.02753 4.1551C2.72253 5.4826 2.02503 7.2601 2.06253 9.1501V13.7851C2.06253 14.9326 3.03003 15.9001 4.17753 15.9001C5.32503 15.9001 6.29253 14.9326 6.29253 13.7851V11.6776C6.29253 11.1676 5.88003 10.8601 5.47503 10.8601C4.96503 10.8601 4.65753 11.2726 4.65753 11.6776V13.8676C4.65753 14.1751 4.40253 14.4301 4.09503 14.4301C3.78753 14.4301 3.53253 14.1751 3.53253 13.8676V11.6776C3.53253 10.5901 4.38753 9.7351 5.47503 9.7351C6.56253 9.7351 7.41753 10.5901 7.41753 11.6776V13.7851C7.41753 15.5401 5.93253 17.0251 4.17753 17.0251Z" fill="#DFB256"/>
</svg>
