<svg width="18" height="18" viewBox="0 0 18 18" fill="none" xmlns="http://www.w3.org/2000/svg">
<path d="M12.8999 17.0625C11.4449 17.0625 10.0799 16.29 9.33743 15.0375C8.94743 14.4075 8.73743 13.6575 8.73743 12.9C8.73743 10.605 10.6049 8.73755 12.8999 8.73755C15.1949 8.73755 17.0624 10.605 17.0624 12.9C17.0624 13.665 16.8524 14.4075 16.4549 15.0525C15.7199 16.29 14.3549 17.0625 12.8999 17.0625ZM12.8999 9.86255C11.2274 9.86255 9.86243 11.2275 9.86243 12.9C9.86243 13.455 10.0124 13.9951 10.2974 14.4601C10.8524 15.3901 11.8199 15.9375 12.8999 15.9375C13.9799 15.9375 14.9474 15.39 15.4949 14.4675C15.7874 13.995 15.9374 13.455 15.9374 12.9C15.9374 11.2275 14.5724 9.86255 12.8999 9.86255Z" fill="#5FA19F"/>
<path d="M12.3825 14.3476C12.24 14.3476 12.0975 14.2951 11.985 14.1826L11.1 13.2976C10.8825 13.0801 10.8825 12.7201 11.1 12.5026C11.3175 12.2851 11.6775 12.2851 11.895 12.5026L12.3975 13.0051L13.92 11.5951C14.1525 11.3851 14.505 11.4001 14.715 11.6251C14.925 11.8501 14.91 12.2101 14.685 12.4201L12.765 14.1901C12.66 14.3026 12.5175 14.3476 12.3825 14.3476Z" fill="#5FA19F"/>
<path d="M9 16.2375C8.7675 16.2375 8.535 16.2075 8.3475 16.14C6.4275 15.4875 0.9375 12.3075 0.9375 6.51747C0.9375 3.89247 3.06 1.76245 5.67 1.76245C6.915 1.76245 8.1225 2.26497 9 3.14247C9.8775 2.26497 11.085 1.76245 12.33 1.76245C14.94 1.76245 17.0625 3.89247 17.0625 6.51747C17.0625 7.97997 16.71 9.38248 16.0125 10.695C15.93 10.8525 15.7725 10.965 15.5925 10.9875C15.4125 11.01 15.2325 10.95 15.105 10.815C14.52 10.2 13.74 9.85498 12.9 9.85498C11.2275 9.85498 9.8625 11.22 9.8625 12.8925C9.8625 13.635 10.14 14.355 10.6425 14.9175C10.7625 15.0525 10.8075 15.2325 10.77 15.405C10.7325 15.5775 10.6125 15.7275 10.455 15.8025C10.155 15.9375 9.885 16.05 9.6375 16.1325C9.4575 16.2075 9.2325 16.2375 9 16.2375ZM5.67 2.88745C3.6825 2.88745 2.0625 4.51497 2.0625 6.51747C2.0625 11.6475 6.99 14.4825 8.715 15.075C8.8575 15.1275 9.1425 15.12 9.2775 15.075C9.3 15.0675 9.3225 15.06 9.345 15.0525C8.9475 14.4075 8.7375 13.665 8.7375 12.9C8.7375 10.605 10.605 8.73749 12.9 8.73749C13.77 8.73749 14.625 9.01498 15.33 9.52498C15.735 8.56498 15.9375 7.55997 15.9375 6.51747C15.9375 4.51497 14.3175 2.88745 12.33 2.88745C11.205 2.88745 10.125 3.42749 9.45 4.33499C9.24 4.61999 8.76 4.61999 8.55 4.33499C7.875 3.42749 6.795 2.88745 5.67 2.88745Z" fill="#5FA19F"/>
</svg>
