<svg width="24" height="24" viewBox="0 0 24 24" fill="none" xmlns="http://www.w3.org/2000/svg">
<path d="M16.9312 22.3946C15.0215 22.3946 13.2299 21.3806 12.2554 19.7367C11.7435 18.9099 11.4679 17.9255 11.4679 16.9313C11.4679 13.9191 13.919 11.468 16.9312 11.468C19.9433 11.468 22.3944 13.9191 22.3944 16.9313C22.3944 17.9353 22.1188 18.9099 21.5971 19.7564C20.6324 21.3807 18.8408 22.3946 16.9312 22.3946ZM16.9312 12.9446C14.736 12.9446 12.9444 14.7361 12.9444 16.9313C12.9444 17.6597 13.1413 18.3685 13.5154 18.9788C14.2438 20.1994 15.5137 20.918 16.9312 20.918C18.3487 20.918 19.6185 20.1994 20.3371 18.9886C20.721 18.3684 20.9179 17.6597 20.9179 16.9313C20.9179 14.7361 19.1263 12.9446 16.9312 12.9446Z" fill="#2D2D2D"/>
<path d="M16.252 18.8312C16.065 18.8312 15.878 18.7623 15.7303 18.6146L14.5688 17.453C14.2833 17.1676 14.2833 16.6951 14.5688 16.4096C14.8542 16.1241 15.3267 16.1241 15.6122 16.4096L16.2717 17.0692L18.27 15.2186C18.5752 14.9429 19.0378 14.9626 19.3135 15.2579C19.5891 15.5532 19.5694 16.0257 19.2741 16.3013L16.7541 18.6245C16.6163 18.7721 16.4292 18.8312 16.252 18.8312Z" fill="#2D2D2D"/>
<path d="M11.8125 21.3117C11.5073 21.3117 11.2022 21.2723 10.9561 21.1837C8.43609 20.3273 1.23047 16.1536 1.23047 8.5542C1.23047 5.10888 4.01625 2.31323 7.44188 2.31323C9.07594 2.31323 10.6608 2.97279 11.8125 4.12451C12.9642 2.97279 14.5491 2.31323 16.1831 2.31323C19.6087 2.31323 22.3945 5.10888 22.3945 8.5542C22.3945 10.4737 21.9319 12.3145 21.0164 14.0372C20.9081 14.2439 20.7014 14.3916 20.4652 14.4211C20.2289 14.4506 19.9927 14.3718 19.8253 14.1946C19.0575 13.3875 18.0338 12.9347 16.9313 12.9347C14.7361 12.9347 12.9445 14.7262 12.9445 16.9214C12.9445 17.8959 13.3087 18.8409 13.9683 19.5792C14.1258 19.7564 14.1848 19.9926 14.1356 20.219C14.0864 20.4454 13.9289 20.6423 13.7222 20.7408C13.3284 20.918 12.9741 21.0656 12.6492 21.1739C12.413 21.2723 12.1177 21.3117 11.8125 21.3117ZM7.44188 3.78979C4.83328 3.78979 2.70703 5.92592 2.70703 8.5542C2.70703 15.2873 9.17437 19.0082 11.4384 19.7859C11.6255 19.8548 11.9995 19.845 12.1767 19.7859C12.2062 19.776 12.2358 19.7662 12.2653 19.7564C11.7436 18.9098 11.468 17.9353 11.468 16.9312C11.468 13.9191 13.9191 11.468 16.9313 11.468C18.0731 11.468 19.1953 11.8322 20.1206 12.5015C20.6522 11.2415 20.918 9.92248 20.918 8.5542C20.918 5.92592 18.7917 3.78979 16.1831 3.78979C14.7066 3.78979 13.2891 4.4986 12.4031 5.68969C12.1275 6.06375 11.4975 6.06375 11.2219 5.68969C10.3359 4.4986 8.91844 3.78979 7.44188 3.78979Z" fill="#2D2D2D"/>
</svg>
