<svg width="36" height="36" viewBox="0 0 36 36" fill="none" xmlns="http://www.w3.org/2000/svg">
<path d="M29.4585 28.4864C29.184 28.4864 28.9096 28.3853 28.6929 28.1686L21.5429 21.0186C21.124 20.5997 21.124 19.9064 21.5429 19.4875C21.9618 19.0686 22.6551 19.0686 23.074 19.4875L30.224 26.6375C30.6429 27.0564 30.6429 27.7497 30.224 28.1686C30.0074 28.3853 29.7329 28.4864 29.4585 28.4864Z" fill="#535353"/>
<path d="M15.1584 27.2879C14.104 27.2879 13.0929 26.869 12.3562 26.1179L6.23174 19.9934C4.68618 18.4479 4.68618 15.9201 6.23174 14.3745L16.444 4.16234C17.9895 2.61678 20.5173 2.61678 22.0629 4.16234L28.1873 10.2868C28.9384 11.0379 29.3573 12.0346 29.3573 13.089C29.3573 14.1434 28.9384 15.1546 28.1873 15.8912L17.9751 26.1034C17.224 26.8834 16.2273 27.2879 15.1584 27.2879ZM19.2462 5.17343C18.784 5.17343 18.3217 5.34675 17.9751 5.70786L7.76287 15.9201C7.05509 16.6279 7.05509 17.769 7.76287 18.4767L13.8873 24.6012C14.5662 25.2801 15.7506 25.2801 16.444 24.6012L26.6562 14.389C27.0029 14.0423 27.1906 13.5945 27.1906 13.1179C27.1906 12.6412 27.0029 12.179 26.6562 11.8468L20.5318 5.72232C20.1706 5.34677 19.7084 5.17343 19.2462 5.17343Z" fill="#535353"/>
<path d="M12.1107 32.0832H3.44405C2.85183 32.0832 2.36072 31.5921 2.36072 30.9998C2.36072 30.4076 2.85183 29.9165 3.44405 29.9165H12.1107C12.7029 29.9165 13.1941 30.4076 13.1941 30.9998C13.1941 31.5921 12.7029 32.0832 12.1107 32.0832Z" fill="#535353"/>
<path d="M20.2429 23.4019C19.9685 23.4019 19.6941 23.3007 19.4774 23.0841L9.26516 12.8719C8.84627 12.453 8.84627 11.7597 9.26516 11.3408C9.68404 10.9219 10.3774 10.9219 10.7963 11.3408L21.0085 21.553C21.4274 21.9719 21.4274 22.6652 21.0085 23.0841C20.8063 23.3007 20.5174 23.4019 20.2429 23.4019Z" fill="#535353"/>
</svg>
