<svg width="21" height="21" viewBox="0 0 21 21" fill="none" xmlns="http://www.w3.org/2000/svg">
<path d="M10.5583 12.2501C8.83881 12.2501 7.43414 10.8536 7.43414 9.12598C7.43414 7.39841 8.83881 6.00989 10.5583 6.00989C12.2778 6.00989 13.6825 7.40648 13.6825 9.13405C13.6825 10.8616 12.2778 12.2501 10.5583 12.2501ZM10.5583 7.22081C9.50885 7.22081 8.64506 8.07652 8.64506 9.13405C8.64506 10.1916 9.50078 11.0473 10.5583 11.0473C11.6158 11.0473 12.4716 10.1916 12.4716 9.13405C12.4716 8.07652 11.6078 7.22081 10.5583 7.22081Z" fill="white"/>
<path d="M10.5583 19.1847C9.36356 19.1847 8.16071 18.7327 7.22427 17.8366C4.8428 15.5439 2.21107 11.887 3.20402 7.53572C4.1001 3.58813 7.54718 1.82019 10.5583 1.82019C10.5583 1.82019 10.5583 1.82019 10.5664 1.82019C13.5775 1.82019 17.0246 3.58813 17.9207 7.54379C18.9056 11.895 16.2739 15.5439 13.8924 17.8366C12.9559 18.7327 11.7531 19.1847 10.5583 19.1847ZM10.5583 3.03111C8.20915 3.03111 5.18993 4.28239 4.39072 7.80212C3.51886 11.6044 5.90841 14.882 8.07191 16.9567C9.4685 18.3048 11.6562 18.3048 13.0528 16.9567C15.2083 14.882 17.5978 11.6044 16.7421 7.80212C15.9348 4.28239 12.9075 3.03111 10.5583 3.03111Z" fill="white"/>
</svg>
