<svg width="13" height="11" viewBox="0 0 13 11" fill="none" xmlns="http://www.w3.org/2000/svg">
<path fill-rule="evenodd" clip-rule="evenodd" d="M9.53653 0.501953C10.3817 0.501953 11.1947 0.793573 11.7929 1.31684C12.3916 1.839 12.7263 2.54329 12.7263 3.28059V7.62738C12.7263 9.16251 11.2956 10.406 9.53653 10.406H3.3102C1.55115 10.406 0.121094 9.16251 0.121094 7.62738V3.28059C0.121094 1.74546 1.54485 0.501953 3.3102 0.501953H9.53653ZM10.5393 4.10043L10.5897 4.05641C10.7403 3.89685 10.7403 3.66575 10.5828 3.50619C10.4952 3.4242 10.3748 3.37413 10.2494 3.36313C10.117 3.35707 9.99094 3.39614 9.89577 3.47317L7.05394 5.45399C6.68839 5.71864 6.16464 5.71864 5.79342 5.45399L2.95726 3.47317C2.76125 3.34662 2.49024 3.36313 2.327 3.51169C2.15683 3.66025 2.13792 3.89685 2.28225 4.06191L2.36481 4.13344L5.23249 6.08675C5.58544 6.32884 6.01338 6.4609 6.4615 6.4609C6.90835 6.4609 7.34386 6.32884 7.69617 6.08675L10.5393 4.10043Z" fill="#747474"/>
</svg>
