<svg width="12" height="12" viewBox="0 0 12 12" fill="none" xmlns="http://www.w3.org/2000/svg">
<path d="M3.81502 1.78509C3.90471 1.73617 4.00002 1.81143 4.00002 1.9136V8.68005C4.00002 8.79845 3.91897 8.89839 3.81502 8.95509L2.64002 9.62509C1.82002 10.0951 1.14502 9.70509 1.14502 8.75509V3.89009C1.14502 3.57509 1.37002 3.18509 1.65002 3.02509L3.81502 1.78509Z" fill="#747474"/>
<path d="M7.2219 2.98234C7.39223 3.0667 7.5 3.24033 7.5 3.43041V9.45386C7.5 9.82235 7.11495 10.0642 6.78298 9.90431L5.15798 9.1214C4.98498 9.03805 4.875 8.86299 4.875 8.67096V2.62564C4.875 2.25479 5.26456 2.01299 5.5969 2.17758L7.2219 2.98234Z" fill="#747474"/>
<path d="M11 3.24503V8.11003C11 8.42503 10.775 8.81503 10.495 8.97503L9.12362 9.76099C8.79029 9.95202 8.375 9.71137 8.375 9.32718V3.31035C8.375 3.13084 8.47123 2.9651 8.62714 2.87611L9.505 2.37503C10.325 1.90503 11 2.29503 11 3.24503Z" fill="#747474"/>
</svg>
