<svg width="16" height="16" viewBox="0 0 16 16" fill="none" xmlns="http://www.w3.org/2000/svg">
<path d="M12.6667 5.83325C11.2867 5.83325 10.1667 4.71325 10.1667 3.33325C10.1667 1.95325 11.2867 0.833252 12.6667 0.833252C14.0467 0.833252 15.1667 1.95325 15.1667 3.33325C15.1667 4.71325 14.0467 5.83325 12.6667 5.83325ZM12.6667 1.83325C11.84 1.83325 11.1667 2.50659 11.1667 3.33325C11.1667 4.15992 11.84 4.83325 12.6667 4.83325C13.4933 4.83325 14.1667 4.15992 14.1667 3.33325C14.1667 2.50659 13.4933 1.83325 12.6667 1.83325Z" fill="white"/>
<path d="M8.00001 9.16675H4.66667C4.39334 9.16675 4.16667 8.94008 4.16667 8.66675C4.16667 8.39341 4.39334 8.16675 4.66667 8.16675H8.00001C8.27334 8.16675 8.50001 8.39341 8.50001 8.66675C8.50001 8.94008 8.27334 9.16675 8.00001 9.16675Z" fill="white"/>
<path d="M10.6667 11.8333H4.66667C4.39334 11.8333 4.16667 11.6066 4.16667 11.3333C4.16667 11.0599 4.39334 10.8333 4.66667 10.8333H10.6667C10.94 10.8333 11.1667 11.0599 11.1667 11.3333C11.1667 11.6066 10.94 11.8333 10.6667 11.8333Z" fill="white"/>
<path d="M10 15.1666H6C2.38 15.1666 0.833328 13.6199 0.833328 9.99992V5.99992C0.833328 2.37992 2.38 0.833252 6 0.833252H9.33333C9.60666 0.833252 9.83333 1.05992 9.83333 1.33325C9.83333 1.60659 9.60666 1.83325 9.33333 1.83325H6C2.92666 1.83325 1.83333 2.92659 1.83333 5.99992V9.99992C1.83333 13.0733 2.92666 14.1666 6 14.1666H10C13.0733 14.1666 14.1667 13.0733 14.1667 9.99992V6.66659C14.1667 6.39325 14.3933 6.16659 14.6667 6.16659C14.94 6.16659 15.1667 6.39325 15.1667 6.66659V9.99992C15.1667 13.6199 13.62 15.1666 10 15.1666Z" fill="white"/>
</svg>
