<svg width="32" height="31" viewBox="0 0 32 31" fill="none" xmlns="http://www.w3.org/2000/svg">
<path d="M25.0529 11.5459C22.4175 11.5459 20.2786 9.40704 20.2786 6.77162C20.2786 4.13621 22.4175 1.99731 25.0529 1.99731C27.6883 1.99731 29.8272 4.13621 29.8272 6.77162C29.8272 9.40704 27.6883 11.5459 25.0529 11.5459ZM25.0529 3.90704C23.4742 3.90704 22.1883 5.19292 22.1883 6.77162C22.1883 8.35033 23.4742 9.63621 25.0529 9.63621C26.6316 9.63621 27.9175 8.35033 27.9175 6.77162C27.9175 5.19292 26.6316 3.90704 25.0529 3.90704Z" fill="#535353"/>
<path d="M16.1408 17.9117H9.7751C9.25311 17.9117 8.82024 17.4788 8.82024 16.9568C8.82024 16.4348 9.25311 16.002 9.7751 16.002H16.1408C16.6628 16.002 17.0957 16.4348 17.0957 16.9568C17.0957 17.4788 16.6628 17.9117 16.1408 17.9117Z" fill="#535353"/>
<path d="M21.2334 23.0042H9.7751C9.25311 23.0042 8.82024 22.5713 8.82024 22.0493C8.82024 21.5274 9.25311 21.0945 9.7751 21.0945H21.2334C21.7554 21.0945 22.1883 21.5274 22.1883 22.0493C22.1883 22.5713 21.7554 23.0042 21.2334 23.0042Z" fill="#535353"/>
<path d="M19.9603 29.37H12.3214C5.4082 29.37 2.45449 26.4163 2.45449 19.5031V11.8642C2.45449 4.95102 5.4082 1.99731 12.3214 1.99731H18.6871C19.2091 1.99731 19.642 2.43019 19.642 2.95218C19.642 3.47417 19.2091 3.90704 18.6871 3.90704H12.3214C6.45218 3.90704 4.36421 5.995 4.36421 11.8642V19.5031C4.36421 25.3723 6.45218 27.4603 12.3214 27.4603H19.9603C25.8295 27.4603 27.9175 25.3723 27.9175 19.5031V13.1374C27.9175 12.6154 28.3503 12.1825 28.8723 12.1825C29.3943 12.1825 29.8272 12.6154 29.8272 13.1374V19.5031C29.8272 26.4163 26.8735 29.37 19.9603 29.37Z" fill="#535353"/>
</svg>
