<svg width="29" height="29" viewBox="0 0 29 29" fill="none" xmlns="http://www.w3.org/2000/svg">
<path d="M20.7694 11.4L6.65 19.9144C5.81875 20.4131 4.75 19.8194 4.75 18.8456V9.34563C4.75 5.20126 9.22688 2.61251 12.825 4.67876L18.2756 7.81376L20.7575 9.23876C21.5769 9.72563 21.5887 10.9131 20.7694 11.4Z" fill="white"/>
<path d="M21.4819 18.3588L16.6725 21.1375L11.875 23.9044C10.1531 24.89 8.20564 24.6881 6.79252 23.6906C6.10377 23.2156 6.18689 22.1588 6.91127 21.7313L22.0044 12.6825C22.7169 12.255 23.655 12.6588 23.7856 13.4781C24.0825 15.3188 23.3225 17.3019 21.4819 18.3588Z" fill="white"/>
</svg>
