<svg width="20" height="19" viewBox="0 0 20 19" fill="none" xmlns="http://www.w3.org/2000/svg">
<path d="M15.352 17.7906H4.63209C1.76068 17.7906 1.76068 16.1979 1.76068 14.9192V14.1535C1.76068 13.4184 2.36559 12.8135 3.10067 12.8135H16.8834C17.6185 12.8135 18.2234 13.4184 18.2234 14.1535V14.9192C18.2234 16.1979 18.2234 17.7906 15.352 17.7906ZM3.10067 13.962C2.99347 13.962 2.90924 14.0463 2.90924 14.1535V14.9192C2.90924 16.1749 2.90924 16.642 4.63209 16.642H15.352C17.0749 16.642 17.0749 16.1749 17.0749 14.9192V14.1535C17.0749 14.0463 16.9906 13.962 16.8834 13.962H3.10067Z" fill="#747474"/>
<path d="M16.692 13.9621H3.33038C3.01644 13.9621 2.7561 13.7017 2.7561 13.3878V10.3249C2.7561 7.18554 4.98432 4.42899 8.04715 3.77814C8.49892 3.6786 8.97366 3.625 9.45605 3.625H10.5663C11.0564 3.625 11.5311 3.6786 11.9829 3.77814C15.0457 4.43665 17.2663 7.1932 17.2663 10.3249V13.3878C17.2663 13.7017 17.0136 13.9621 16.692 13.9621ZM3.90467 12.8135H16.1177V10.3249C16.1177 7.7292 14.28 5.44739 11.7379 4.89608C11.3627 4.81185 10.9722 4.77356 10.5663 4.77356H9.45605C9.05788 4.77356 8.66737 4.81185 8.29218 4.89608C5.75002 5.43973 3.90467 7.72154 3.90467 10.3249V12.8135Z" fill="#747474"/>
<path d="M8.16965 4.9114C7.91697 4.9114 7.68726 4.74294 7.61834 4.49026C7.55709 4.2682 7.52646 4.04615 7.52646 3.81643C7.52646 2.44582 8.64439 1.32788 10.015 1.32788C11.3856 1.32788 12.5036 2.44582 12.5036 3.81643C12.5036 4.04615 12.4729 4.2682 12.4117 4.49026C12.3351 4.78123 12.0441 4.965 11.7379 4.89608C11.3627 4.81185 10.9721 4.77357 10.5663 4.77357H9.45604C9.05788 4.77357 8.66736 4.81185 8.29217 4.89608C8.25388 4.90374 8.2156 4.9114 8.16965 4.9114ZM9.45604 3.62501H10.5663C10.8267 3.62501 11.0947 3.64032 11.3473 3.67095C11.2784 2.99713 10.7041 2.47644 10.015 2.47644C9.32587 2.47644 8.75925 2.99713 8.68268 3.67095C8.94302 3.64032 9.1957 3.62501 9.45604 3.62501Z" fill="#747474"/>
<path d="M12.3121 9.3678H7.7179C7.40396 9.3678 7.14362 9.10746 7.14362 8.79352C7.14362 8.47958 7.40396 8.21924 7.7179 8.21924H12.3121C12.6261 8.21924 12.8864 8.47958 12.8864 8.79352C12.8864 9.10746 12.6261 9.3678 12.3121 9.3678Z" fill="#747474"/>
</svg>
