<svg width="17" height="17" viewBox="0 0 17 17" fill="none" xmlns="http://www.w3.org/2000/svg">
<g clip-path="url(#clip0_1_1749)">
<path d="M0.96109 7.06022L13.9805 1.65797C14.5289 1.43036 15.1486 1.53049 15.5976 1.91915C16.0465 2.30788 16.2343 2.90679 16.0876 3.48222L14.8082 8.49943L16.0876 13.5166C16.2343 14.0921 16.0466 14.691 15.5976 15.0797C15.1477 15.4692 14.528 15.5681 13.9805 15.3409L0.96109 9.93865C0.368323 9.69269 8.2016e-05 9.14121 8.2016e-05 8.49943C8.2016e-05 7.85766 0.368323 7.30618 0.96109 7.06022ZM1.3235 9.06532L14.3428 14.4676C14.5618 14.5584 14.7995 14.52 14.9787 14.3649C15.1579 14.2097 15.2299 13.98 15.1714 13.7502L13.9529 8.97218H9.2549C8.99379 8.97218 8.78212 8.76052 8.78212 8.4994C8.78212 8.23829 8.99379 8.02662 9.2549 8.02662H13.9529L15.1714 3.24862C15.2299 3.01893 15.1579 2.78917 14.9787 2.63401C14.7995 2.47886 14.5619 2.44047 14.3429 2.5313L1.3235 7.93355C0.972877 8.07903 0.945616 8.40346 0.945616 8.49943C0.945616 8.5954 0.972877 8.91983 1.3235 9.06532Z" fill="white"/>
</g>
<defs>
<clipPath id="clip0_1_1749">
<rect width="16.1366" height="16.1366" fill="white" transform="matrix(-1 0 0 1 16.1366 0.431763)"/>
</clipPath>
</defs>
</svg>
