<svg width="35" height="36" viewBox="0 0 35 36" fill="none" xmlns="http://www.w3.org/2000/svg">
<path d="M21.4469 33.3514H13.7355C6.68105 33.3514 3.68219 30.3383 3.68219 23.2981V16.8862C3.68219 16.3007 4.16772 15.8152 4.75321 15.8152C5.3387 15.8152 5.82424 16.3007 5.82424 16.8862V23.2981C5.82424 29.1387 7.89488 31.2093 13.7355 31.2093H21.4326C27.2732 31.2093 29.3439 29.1387 29.3439 23.2981V16.8862C29.3439 16.3007 29.8294 15.8152 30.4149 15.8152C31.0004 15.8152 31.4859 16.3007 31.4859 16.8862V23.2981C31.5002 30.3383 28.4871 33.3514 21.4469 33.3514Z" fill="#2D2D2D"/>
<path d="M17.5912 19.0713C16.0204 19.0713 14.5924 18.4572 13.5785 17.3291C12.5646 16.2009 12.0933 14.7301 12.2504 13.1592L13.2072 3.61999C13.2643 3.07733 13.7213 2.64893 14.2782 2.64893H20.9471C21.504 2.64893 21.961 3.06305 22.0181 3.61999L22.9749 13.1592C23.132 14.7301 22.6607 16.2009 21.6468 17.3291C20.5901 18.4572 19.1621 19.0713 17.5912 19.0713ZM15.235 4.79097L14.3782 13.3734C14.2782 14.3302 14.5638 15.2299 15.1636 15.8868C16.3774 17.2291 18.805 17.2291 20.0189 15.8868C20.6186 15.2156 20.9042 14.3159 20.8043 13.3734L19.9475 4.79097H15.235Z" fill="#2D2D2D"/>
<path d="M26.6021 19.0713C23.7032 19.0713 21.1185 16.7293 20.8186 13.8447L19.8189 3.83419C19.7904 3.5343 19.8903 3.23442 20.0903 3.00593C20.2902 2.77745 20.5758 2.64893 20.89 2.64893H25.2455C29.4439 2.64893 31.4003 4.4054 31.9858 8.71805L32.3856 12.688C32.557 14.3731 32.0429 15.9724 30.9433 17.1863C29.8437 18.4001 28.3014 19.0713 26.6021 19.0713ZM22.0752 4.79097L22.9606 13.6305C23.1463 15.4155 24.8028 16.9292 26.6021 16.9292C27.6874 16.9292 28.6585 16.5151 29.3582 15.7582C30.0436 15.0014 30.3578 13.9875 30.2578 12.9022L29.858 8.9751C29.4153 5.74775 28.3728 4.79097 25.2455 4.79097H22.0752Z" fill="#2D2D2D"/>
<path d="M8.50897 19.0713C6.80961 19.0713 5.26734 18.4001 4.16775 17.1863C3.06817 15.9724 2.55408 14.3731 2.72544 12.688L3.11101 8.7609C3.71078 4.4054 5.66719 2.64893 9.86559 2.64893H14.2211C14.521 2.64893 14.8066 2.77745 15.0208 3.00593C15.235 3.23442 15.3207 3.5343 15.2921 3.83419L14.2925 13.8447C13.9926 16.7293 11.4079 19.0713 8.50897 19.0713ZM9.86559 4.79097C6.73821 4.79097 5.69575 5.73347 5.23878 9.00366L4.85321 12.9022C4.73897 13.9875 5.06741 15.0014 5.75287 15.7582C6.43832 16.5151 7.40938 16.9292 8.50897 16.9292C10.3083 16.9292 11.9791 15.4155 12.1504 13.6305L13.0358 4.79097H9.86559Z" fill="#2D2D2D"/>
<path d="M21.1612 33.3515H14.0211C13.4356 33.3515 12.9501 32.866 12.9501 32.2805V28.7104C12.9501 25.7116 14.5923 24.0693 17.5912 24.0693C20.59 24.0693 22.2323 25.7116 22.2323 28.7104V32.2805C22.2323 32.866 21.7467 33.3515 21.1612 33.3515ZM15.0921 31.2095H20.0902V28.7104C20.0902 26.9111 19.3905 26.2114 17.5912 26.2114C15.7919 26.2114 15.0921 26.9111 15.0921 28.7104V31.2095Z" fill="#2D2D2D"/>
</svg>
