<svg width="18" height="18" viewBox="0 0 18 18" fill="none" xmlns="http://www.w3.org/2000/svg">
<path d="M12.6115 16.1489C12.235 16.1489 11.7519 16.0281 11.148 15.6729L9.02366 14.4153C8.80341 14.2874 8.37713 14.2874 8.16399 14.4153L6.03258 15.6729C4.77505 16.4189 4.03616 16.1205 3.70224 15.8789C3.37542 15.6373 2.86388 15.0192 3.19781 13.5983L3.70224 11.4172C3.75908 11.1898 3.6454 10.799 3.47489 10.6285L1.71292 8.86656C0.83194 7.98558 0.902988 7.23248 1.02377 6.86304C1.14455 6.49359 1.5282 5.83996 2.75021 5.63392L5.01661 5.25738C5.22975 5.22185 5.53525 4.9945 5.62761 4.80268L6.88515 2.29472C7.45352 1.15086 8.19951 0.980347 8.59027 0.980347C8.98103 0.980347 9.72703 1.15086 10.2954 2.29472L11.5458 4.79557C11.6453 4.9874 11.9508 5.21475 12.1639 5.25027L14.4303 5.62682C15.6594 5.83286 16.0431 6.48649 16.1568 6.85593C16.2705 7.22538 16.3415 7.97848 15.4676 8.85946L13.7057 10.6285C13.5351 10.799 13.4286 11.1827 13.4783 11.4172L13.9827 13.5983C14.3096 15.0192 13.8051 15.6373 13.4783 15.8789C13.3007 16.0068 13.0165 16.1489 12.6115 16.1489ZM8.59027 13.2502C8.9384 13.2502 9.28653 13.3354 9.56362 13.4988L11.6879 14.7564C12.306 15.1258 12.6968 15.1258 12.846 15.0192C12.9952 14.9127 13.1018 14.5361 12.9455 13.8399L12.441 11.6587C12.306 11.069 12.5263 10.3088 12.9526 9.87543L14.7145 8.11347C15.0627 7.76534 15.219 7.42431 15.1479 7.18986C15.0698 6.9554 14.7429 6.76357 14.2598 6.68542L11.9934 6.30887C11.4464 6.21651 10.8496 5.77602 10.6009 5.27869L9.35048 2.77784C9.12313 2.32313 8.83894 2.05316 8.59027 2.05316C8.34161 2.05316 8.05742 2.32313 7.83717 2.77784L6.57964 5.27869C6.33098 5.77602 5.73418 6.21651 5.18712 6.30887L2.92783 6.68542C2.44471 6.76357 2.11789 6.9554 2.03974 7.18986C1.96159 7.42431 2.125 7.77244 2.47313 8.11347L4.23509 9.87543C4.66137 10.3017 4.88162 11.069 4.74663 11.6587L4.2422 13.8399C4.07879 14.5432 4.19246 14.9127 4.34166 15.0192C4.49086 15.1258 4.87452 15.1187 5.49973 14.7564L7.62403 13.4988C7.89401 13.3354 8.24214 13.2502 8.59027 13.2502Z" fill="white"/>
</svg>
