<svg width="24" height="24" viewBox="0 0 24 24" fill="none" xmlns="http://www.w3.org/2000/svg">
<path d="M23.9993 6.99975V16.9995C23.9948 20.8635 20.8628 23.9955 16.9988 23.9985H6.99825C3.135 23.9933 0.0045 20.8628 0 16.9995V6.999C0.0045 3.13575 3.135 0.00525 6.9975 0H16.998C20.8628 0.00375 23.994 3.135 23.9985 6.999V6.99975H23.9993ZM21.999 6.99975C21.996 4.239 19.7588 2.00175 16.9988 1.99875H6.99825C4.23825 2.0025 2.00175 4.239 1.99875 6.999V16.9995C2.00175 19.7595 4.23825 21.9968 6.9975 22.0005H16.998C19.7588 21.9975 21.996 19.7603 21.999 17.0003V6.99975ZM8.9985 10.4993V17.9993C8.97825 18.5363 8.53875 18.9638 7.99875 18.9638C7.45875 18.9638 7.0185 18.5363 6.999 18.0008V17.9993V10.4993C6.999 9.9465 7.44675 9.49875 7.9995 9.49875C8.55225 9.49875 9 9.9465 9 10.4993H8.9985ZM17.9993 13.5V17.9993C17.979 18.5363 17.5395 18.9638 16.9995 18.9638C16.4595 18.9638 16.0193 18.5363 15.9998 18.0008V17.9993V13.5C15.9998 12.9473 15.552 12.4995 14.9993 12.4995H13.9988C13.4468 12.5003 12.9998 12.948 12.9998 13.5V17.9993C12.9795 18.5363 12.54 18.9638 12 18.9638C11.46 18.9638 11.0198 18.5363 11.0003 18.0008V17.9993V10.4993C11.0003 9.9465 11.448 9.49875 12.0008 9.49875C12.5535 9.49875 13.0013 9.9465 13.0013 10.4993V10.6748C13.3133 10.5645 13.65 10.4993 14.0003 10.4993H15.0008C16.6568 10.5015 17.9985 11.844 18 13.5H17.9993ZM9.50025 6.4995C9.50025 7.32825 8.82825 8.00025 7.9995 8.00025C7.17075 8.00025 6.49875 7.32825 6.49875 6.4995C6.49875 5.67075 7.17075 4.99875 7.9995 4.99875C8.82825 4.99875 9.50025 5.67075 9.50025 6.4995Z" fill="#747474"/>
</svg>
