<svg width="25" height="26" viewBox="0 0 25 26" fill="none" xmlns="http://www.w3.org/2000/svg">
<path d="M21.4036 4.39982C23.6053 6.5893 24.9681 9.62065 24.9681 12.9699C24.9681 12.9813 24.9681 12.9927 24.9681 13.0041V13.0026C24.9681 16.253 23.7034 19.3087 21.4036 21.6069C19.2081 23.8047 16.1737 25.1645 12.8221 25.1645C12.8145 25.1645 12.8069 25.1645 12.7993 25.1645H12.8001C9.68355 25.1645 6.56778 23.9789 4.19578 21.6069C1.99489 19.4174 0.632839 16.3861 0.632839 13.0368C0.632839 13.0246 0.632839 13.0125 0.632839 13.0003V13.0018C0.632839 9.75146 1.89755 6.69653 4.1973 4.39906C6.38678 2.19741 9.41737 0.834595 12.7674 0.834595C12.7788 0.834595 12.791 0.834595 12.8024 0.834595H12.8008C16.0512 0.834595 19.1061 2.09931 21.4051 4.39906L21.4036 4.39982ZM19.9701 20.1741C21.8044 18.3482 22.9398 15.821 22.9398 13.0285C22.9398 13.0193 22.9398 13.011 22.9398 13.0018V13.0034C22.9398 10.2952 21.8858 7.74982 19.9701 5.83412C18.1449 3.9998 15.6177 2.86437 12.8259 2.86437C12.8168 2.86437 12.8084 2.86437 12.7993 2.86437H12.8008C12.7932 2.86437 12.7849 2.86437 12.7757 2.86437C9.98395 2.86437 7.45681 3.9998 5.63161 5.83412L5.63085 5.83488C3.79652 7.66008 2.66109 10.1865 2.66109 12.9783C2.66109 12.9874 2.66109 12.9965 2.66109 13.0056V13.0041C2.66109 15.713 3.71515 18.2592 5.63085 20.1749C9.58392 24.1279 16.017 24.1279 19.9701 20.1749V20.1741ZM15.3036 7.87454C15.5234 7.78404 15.7782 7.73157 16.0459 7.73157C16.6049 7.73157 17.1106 7.96048 17.4734 8.33008C18.0491 8.9073 18.2247 9.74005 17.9289 10.499L14.823 18.4843C14.5135 19.2775 13.7819 19.7771 12.9385 19.7771H12.8465C11.9628 19.7467 11.2274 19.1482 10.9908 18.3367L10.987 18.3223L10.19 15.6119L7.48114 14.8156C6.65524 14.5753 6.05673 13.8391 6.02631 12.9585V12.9554C6.02478 12.9243 6.02326 12.8878 6.02326 12.8513C6.02326 12.0003 6.55485 11.2732 7.30395 10.9835L7.31763 10.9789L15.3036 7.87454ZM16.0375 9.76439L8.05228 12.8703L10.7155 13.6528L11.365 13.0034C11.546 12.8315 11.7917 12.7258 12.0616 12.7258C12.6221 12.7258 13.0761 13.1798 13.0761 13.7403C13.0761 14.0103 12.9704 14.2551 12.7993 14.4369L12.8001 14.4361L12.1506 15.0856L12.9332 17.7496L16.0375 9.76439Z" fill="#747474"/>
</svg>
