<svg width="24" height="24" viewBox="0 0 24 24" fill="none" xmlns="http://www.w3.org/2000/svg">
<path d="M18.1097 14.2503C18.4322 14.5736 18.5802 15.0153 18.517 15.4663C18.4545 15.9167 18.1909 16.3009 17.793 16.5229L15.8207 17.6175C15.5528 17.7705 15.2324 17.8603 14.8905 17.8603C14.4826 17.8603 14.1048 17.7324 13.7952 17.5141L13.8009 17.5184L12.3946 16.5444C12.0757 16.3254 11.7726 16.0991 11.4717 15.8563L11.4566 15.8441C10.3914 14.9952 9.45624 14.06 8.63456 13.03L8.60727 12.9948C8.36235 12.691 8.13466 12.385 7.912 12.0618L6.94165 10.6584C6.72689 10.3546 6.59904 9.97675 6.59904 9.56879C6.59904 9.2269 6.68954 8.90584 6.84684 8.6286L6.84181 8.63794L7.93643 6.66706C8.15693 6.26915 8.54119 6.00483 8.99153 5.94162C9.44188 5.87842 9.88504 6.02781 10.2061 6.34815L11.7891 7.93118C12.7221 8.86418 12.7221 10.3826 11.7891 11.3156L10.6521 12.454C11.0752 12.9316 11.527 13.3848 12.006 13.8079L13.1445 12.6709C14.0775 11.7379 15.5958 11.7379 16.5289 12.6709L18.1097 14.2503ZM10.4359 9.28292L9.30397 8.15096L8.51605 9.56663L9.46271 10.9342L10.4359 9.96095C10.5228 9.87404 10.576 9.7541 10.576 9.62194C10.576 9.48978 10.5221 9.36983 10.4359 9.28292ZM16.3091 15.1561L15.1757 14.0227C15.0888 13.9365 14.9695 13.8833 14.8374 13.8833C14.7052 13.8833 14.586 13.9365 14.4991 14.0227L13.5258 14.9959L14.8934 15.944L16.3091 15.1561ZM20.5934 3.86373C25.0703 8.34561 25.0703 15.6358 20.5934 20.1163C18.5148 22.2006 15.6404 23.4906 12.4643 23.4906C12.4636 23.4906 12.4621 23.4906 12.4607 23.4906C10.1874 23.4906 8.0693 22.8277 6.28948 21.6842L6.33473 21.7115L3.02719 23.3412C2.84762 23.4289 2.63646 23.4799 2.4138 23.4799C2.01733 23.4799 1.65892 23.3182 1.40035 23.0575C1.13962 22.7982 0.978737 22.4398 0.978737 22.0441C0.978737 21.8214 1.02973 21.611 1.12023 21.4228L1.11664 21.4314L2.74635 18.1231C1.63091 16.3857 0.968681 14.2647 0.968681 11.99C0.968681 8.81606 2.25794 5.94306 4.34087 3.8666C8.82059 -0.610251 16.1115 -0.611688 20.5913 3.8666L20.5934 3.86373ZM19.241 18.7631C22.9701 15.0304 22.9701 8.95325 19.2395 5.21907C15.5039 1.48991 9.42823 1.48991 5.69405 5.21907C3.95732 6.95005 2.88354 9.34469 2.88354 11.99C2.88354 14.055 3.53858 15.9677 4.65187 17.5306L4.63176 17.5011C4.83359 17.787 4.86231 18.1605 4.70789 18.4765L3.46891 20.9897L5.98207 19.7493C6.10561 19.6868 6.25141 19.6501 6.40583 19.6501C6.61197 19.6501 6.80374 19.7155 6.95961 19.8268L6.95673 19.8247C8.49091 20.9186 10.4029 21.5736 12.4686 21.5736C15.1146 21.5736 17.5093 20.4991 19.2395 18.7624L19.241 18.7631Z" fill="#747474"/>
</svg>
