<svg width="24" height="24" viewBox="0 0 24 24" fill="none" xmlns="http://www.w3.org/2000/svg">
<path d="M19.2104 24H18.8826L18.756 23.9357C18.2784 23.6928 17.8062 23.4403 17.3341 23.1876C16.9945 23.0057 16.6545 22.824 16.3129 22.6459C14.2296 23.4346 11.8846 23.634 9.67628 23.2058C7.26366 22.7463 5.05437 21.5716 3.34882 19.8414C1.64327 18.1113 0.524228 15.9097 0.143852 13.536C0.00758295 12.7039 -0.0319473 11.8027 0.0262432 10.8583C0.087871 10.1918 0.16374 9.69384 0.273982 9.22632C0.414835 8.56822 0.618873 7.92457 0.883386 7.30392C1.1301 6.69699 1.43363 6.11363 1.79013 5.56128C2.24804 4.824 2.83289 4.10064 3.52479 3.41856C3.89652 3.0648 4.18772 2.8116 4.48039 2.59056C6.24525 1.18704 8.47982 0.288 10.7615 0.06528L10.844 0.05784C10.984 0.04488 11.1244 0.03384 11.2631 0.00984L11.365 0L12.7417 0.00576C12.9136 0.02976 13.0882 0.04944 13.2617 0.06888C13.6467 0.11256 14.045 0.15744 14.4464 0.24984C15.016 0.359592 15.5753 0.515161 16.1187 0.71496C16.6488 0.89232 17.2099 1.14216 17.8671 1.49472C19.1957 2.22281 20.371 3.19035 21.3311 4.34616C21.8738 5.00204 22.3429 5.7129 22.7306 6.46656C23.051 7.08282 23.311 7.72738 23.5069 8.3916C23.7111 9.05063 23.8514 9.72697 23.9261 10.4117C24.0441 11.4354 24.0219 12.47 23.86 13.488C23.7138 14.4621 23.4367 15.4131 23.036 16.3164C22.3485 17.9035 21.2734 19.3522 19.9178 20.5164C19.9178 20.6429 19.9203 20.7691 19.9217 20.8958C19.9301 21.6763 19.9387 22.4832 19.8972 23.2824L19.8915 23.3964L19.8412 23.4994C19.8043 23.5716 19.7633 23.6418 19.7184 23.7096L19.5466 23.9779L19.2104 24ZM16.3755 21.3864L16.6186 21.5112C17.0468 21.7308 17.4711 21.9578 17.8954 22.1851C18.1799 22.3373 18.465 22.4899 18.7508 22.6411C18.7643 22.0637 18.7579 21.4798 18.752 20.9102C18.7498 20.6942 18.7474 20.4782 18.7461 20.2622L18.7447 19.992L18.9548 19.8194C20.2692 18.7409 21.3087 17.3738 21.9613 15.8666C22.3222 15.0533 22.5718 14.1971 22.7038 13.32V13.314C22.8501 12.3947 22.8702 11.4605 22.7637 10.536C22.6964 9.91895 22.5698 9.30946 22.3856 8.7156C22.2091 8.11661 21.9748 7.53536 21.6859 6.97968C20.7138 5.09035 19.1861 3.5282 17.299 2.49384C16.7068 2.17632 16.2039 1.95168 15.7217 1.78992C15.2271 1.60785 14.718 1.46624 14.1994 1.36656C13.8437 1.2852 13.4957 1.24656 13.1274 1.20432C12.9578 1.18512 12.7879 1.16568 12.6185 1.14288H11.4154C11.2563 1.16808 11.1028 1.182 10.954 1.19568L10.8764 1.20264C8.82233 1.4028 6.8085 2.21352 5.20814 3.48528C4.94223 3.68736 4.6805 3.9144 4.34879 4.22928C3.72907 4.84056 3.20069 5.49312 2.78575 6.16176C2.46311 6.66061 2.18857 7.18767 1.96568 7.73616C1.7266 8.29674 1.54244 8.87823 1.41569 9.4728C1.31503 9.89808 1.24726 10.3488 1.19226 10.944C1.14046 11.7881 1.17581 12.6053 1.29882 13.3565C1.64543 15.4974 2.65635 17.4826 4.19484 19.0435C5.73333 20.6045 7.72517 21.666 9.90094 22.0843C11.9789 22.4866 14.1874 22.2763 16.1224 21.4894L16.3755 21.3864Z" fill="#747474"/>
<path d="M10.5838 19.344C9.00454 19.344 7.4253 18.8426 6.16082 17.8929L6.08716 17.8329C5.61206 17.4417 5.07337 16.9987 4.72718 16.3929L3.82805 14.8195L5.49053 15.6C5.75766 15.72 7.48275 16.188 8.65589 15.3544C9.13373 14.9743 9.4624 14.4444 9.5862 13.8544C9.69178 13.3572 9.64317 12.7896 9.43889 12.1132C9.37186 11.8696 9.29844 11.6421 9.22503 11.4148C9.09981 11.0256 8.97017 10.6228 8.88546 10.1995C8.7645 9.49708 8.76851 8.82508 8.89749 8.18348C9.0782 7.32221 9.47699 6.51899 10.0574 5.84732C11.3282 4.31684 14.2068 4.15004 14.3296 4.14332L15.5396 4.0802L14.8371 5.04524C14.4197 5.62124 14.0455 6.4526 14.1572 6.76844C14.335 7.2926 14.6682 7.76684 14.9709 8.1626C15.1285 8.381 15.2827 8.58116 15.4374 8.78132C15.6886 9.10772 15.9484 9.44492 16.1826 9.80564C16.5632 10.4347 16.8332 11.0184 17.0174 11.6056C17.2777 12.5128 17.3533 13.3754 17.247 14.1832C17.1591 14.8587 16.9409 15.5118 16.6039 16.1078C15.7937 17.4535 14.3912 18.5078 12.7474 19.0159C12.0481 19.2347 11.3181 19.3454 10.5838 19.344ZM6.86721 16.9821L6.89373 17.004C8.42313 18.1519 10.5374 18.5114 12.3921 17.9277C13.7671 17.5027 14.9306 16.6341 15.5874 15.5438C15.8491 15.0776 16.0186 14.5675 16.0871 14.04C16.1738 13.3826 16.1092 12.672 15.8958 11.928C15.7424 11.442 15.5084 10.9384 15.1838 10.403C14.9847 10.0965 14.7499 9.79172 14.5017 9.46916C14.3397 9.25916 14.1781 9.04892 14.0234 8.83412C13.6745 8.37812 13.2765 7.80812 13.0484 7.13516C12.863 6.61052 13.031 5.9774 13.2674 5.44628C12.4439 5.62412 11.4611 5.96636 10.9619 6.5714L10.9516 6.5834C10.4971 7.10816 10.1847 7.73609 10.0431 8.40956C9.94369 8.90732 9.9405 9.44156 10.0355 9.99356C10.1048 10.3394 10.2189 10.6944 10.34 11.0704C10.4183 11.3131 10.4961 11.556 10.5639 11.8017C10.8202 12.6496 10.8762 13.3992 10.7314 14.08C10.5622 14.92 10.0633 15.7166 9.36351 16.2621C8.57069 16.8266 7.66224 16.9939 6.86721 16.9821Z" fill="#747474"/>
</svg>
