<svg width="22" height="22" viewBox="0 0 22 22" fill="none" xmlns="http://www.w3.org/2000/svg">
<path d="M21.6313 6.4952V15.507C21.6272 18.9897 18.8049 21.8113 15.3228 21.8147H6.31041C2.82766 21.812 0.00400942 18.9897 0.000629425 15.5076V6.49655C0.00400942 3.01312 2.82698 0.189472 6.31041 0.186768H15.3228C18.8049 0.1915 21.6265 3.01312 21.6306 6.4952V6.49588L21.6313 6.4952ZM19.8277 6.4952C19.825 4.00752 17.8098 1.99169 15.3228 1.98831H6.31041C3.82206 1.99101 1.80555 4.00752 1.80352 6.49588V15.5083C1.8069 17.9953 3.82273 20.0111 6.30974 20.0138H15.3222C17.8092 20.0105 19.8243 17.9953 19.8277 15.509V6.4952ZM15.7724 11.0001C15.769 13.7358 13.5517 15.9531 10.8166 15.9565C8.08086 15.9531 5.86358 13.7358 5.8602 11.0007C5.86358 8.26497 8.08086 6.04769 10.816 6.04431C13.5517 6.04769 15.769 8.26497 15.7724 11.0001ZM13.9695 11.0001C13.9675 9.25936 12.5567 7.84788 10.816 7.84585C9.07525 7.84788 7.66376 9.25869 7.66174 10.9994C7.66309 12.7408 9.0739 14.1523 10.8153 14.1543C12.5567 14.1523 13.9681 12.7408 13.9695 10.9994V11.0001ZM18.0255 5.14252C18.0255 5.88883 17.4191 6.4952 16.6742 6.4952C15.9508 6.4641 15.3769 5.87058 15.3769 5.14252C15.3769 4.41447 15.9515 3.82094 16.6715 3.78985H16.6742C17.4191 3.78985 18.0255 4.39757 18.0255 5.14252Z" fill="#747474"/>
</svg>
