<svg width="14" height="14" viewBox="0 0 14 14" fill="none" xmlns="http://www.w3.org/2000/svg">
<path d="M6.42252 11.6784C9.32524 11.6784 11.6784 9.3253 11.6784 6.42258C11.6784 3.51986 9.32524 1.16675 6.42252 1.16675C3.5198 1.16675 1.16669 3.51986 1.16669 6.42258C1.16669 9.3253 3.5198 11.6784 6.42252 11.6784Z" fill="#C6C6C6"/>
<path d="M12.8275 11.0542C12.635 10.6983 12.2267 10.5 11.6783 10.5C11.2642 10.5 10.9083 10.6692 10.6983 10.9608C10.4883 11.2525 10.4417 11.6433 10.57 12.0342C10.8208 12.7925 11.2583 12.9617 11.4975 12.9908C11.5325 12.9967 11.5675 12.9967 11.6083 12.9967C11.865 12.9967 12.2617 12.8858 12.6467 12.3083C12.9558 11.8592 13.0142 11.41 12.8275 11.0542Z" fill="#C6C6C6"/>
</svg>
